<svg height="494" width="720" xmlns="http://www.w3.org/2000/svg">
<rect height="494" fill="#555" width="720"></rect>
<text fill="#7f7" font-family="Courier New" font-size="12" xml:space="preserve">
<tspan x="10" y="26">10 megabytes installed</tspan>
<tspan x="10" y="42"></tspan>
<tspan x="10" y="58">node_modules</tspan>
<tspan x="10" y="74">└─┬ if-env@1.0.0 </tspan>
<tspan x="10" y="90">  └─┬ npm-run-all@1.4.0 </tspan>
<tspan x="10" y="106">    ├─┬ babel-polyfill@6.23.0 </tspan>
<tspan x="10" y="122">    │ ├── babel-runtime@6.23.0 </tspan>
<tspan x="10" y="138">    │ ├── core-js@2.4.1 </tspan>
<tspan x="10" y="154">    │ └── regenerator-runtime@0.10.3 </tspan>
<tspan x="10" y="170">    ├─┬ minimatch@3.0.3 </tspan>
<tspan x="10" y="186">    │ └─┬ brace-expansion@1.1.7 </tspan>
<tspan x="10" y="202">    │   ├── balanced-match@0.4.2 </tspan>
<tspan x="10" y="218">    │   └── concat-map@0.0.1 </tspan>
<tspan x="10" y="234">    ├─┬ ps-tree@1.1.0 </tspan>
<tspan x="10" y="250">    │ └─┬ event-stream@3.3.4 </tspan>
<tspan x="10" y="266">    │   ├── duplexer@0.1.1 </tspan>
<tspan x="10" y="282">    │   ├── from@0.1.7 </tspan>
<tspan x="10" y="298">    │   ├── map-stream@0.1.0 </tspan>
<tspan x="10" y="314">    │   ├── pause-stream@0.0.11 </tspan>
<tspan x="10" y="330">    │   ├── split@0.3.3 </tspan>
<tspan x="10" y="346">    │   ├── stream-combiner@0.0.4 </tspan>
<tspan x="10" y="362">    │   └── through@2.3.8 </tspan>
<tspan x="10" y="378">    ├─┬ shell-quote@1.6.1 </tspan>
<tspan x="10" y="394">    │ ├── array-filter@0.0.1 </tspan>
<tspan x="10" y="410">    │ ├── array-map@0.0.0 </tspan>
<tspan x="10" y="426">    │ ├── array-reduce@0.0.0 </tspan>
<tspan x="10" y="442">    │ └── jsonify@0.0.0 </tspan>
<tspan x="10" y="458">    └─┬ which@1.2.14 </tspan>
<tspan x="10" y="474">      └── isexe@2.0.0</tspan>
</text>
</svg>
